<?xml version="1.0" encoding="UTF-8" standalone="no"?>
<!DOCTYPE svg PUBLIC "-//W3C//DTD SVG 1.1//EN"
 "http://www.w3.org/Graphics/SVG/1.1/DTD/svg11.dtd">
<!-- Generated by graphviz version 2.28.0 (20111028.1807)
 -->
<!-- Title: G Pages: 1 -->
<svg width="551pt" height="500pt"
 viewBox="0.00 0.00 551.00 500.00" xmlns="http://www.w3.org/2000/svg" xmlns:xlink="http://www.w3.org/1999/xlink">
<g id="graph1" class="graph" transform="scale(1 1) rotate(0) translate(4 496)">
<title>G</title>
<polygon fill="white" stroke="white" points="-4,5 -4,-496 548,-496 548,5 -4,5"/>
<!-- variational_mixture_of_gaussians -->
<g id="node1" class="node"><title>variational_mixture_of_gaussians</title>
<ellipse fill="none" stroke="black" cx="88" cy="-30" rx="88.0159" ry="29.3315"/>
<text text-anchor="middle" x="88" y="-32.8" font-family="Times,serif" font-size="14.00">Variational mixture</text>
<text text-anchor="middle" x="88" y="-16" font-family="Times,serif" font-size="14.00">of Gaussians </text>
</g>
<!-- linear_regression -->
<g id="node2" class="node"><title>linear_regression</title>
<ellipse fill="none" stroke="black" cx="355" cy="-474" rx="78.0078" ry="18"/>
<text text-anchor="middle" x="355" y="-468.4" font-family="Times,serif" font-size="14.00">Linear regression</text>
</g>
<!-- basis_function_expansions -->
<g id="node7" class="node"><title>basis_function_expansions</title>
<ellipse fill="none" stroke="black" cx="278" cy="-390" rx="68.3468" ry="29.3315"/>
<text text-anchor="middle" x="278" y="-392.8" font-family="Times,serif" font-size="14.00">Basis function</text>
<text text-anchor="middle" x="278" y="-376" font-family="Times,serif" font-size="14.00">expansions </text>
</g>
<!-- linear_regression&#45;&gt;basis_function_expansions -->
<g id="edge14" class="edge"><title>linear_regression&#45;&gt;basis_function_expansions</title>
<path fill="none" stroke="black" d="M339.046,-456.01C330.68,-447.101 320.122,-435.857 310.149,-425.236"/>
<polygon fill="black" stroke="black" points="312.426,-422.549 303.03,-417.655 307.324,-427.341 312.426,-422.549"/>
</g>
<!-- generalization -->
<g id="node8" class="node"><title>generalization</title>
<ellipse fill="none" stroke="black" cx="432" cy="-390" rx="67.3132" ry="18"/>
<text text-anchor="middle" x="432" y="-384.4" font-family="Times,serif" font-size="14.00">Generalization</text>
</g>
<!-- linear_regression&#45;&gt;generalization -->
<g id="edge2" class="edge"><title>linear_regression&#45;&gt;generalization</title>
<path fill="none" stroke="black" d="M370.954,-456.01C382.075,-444.167 397.071,-428.198 409.416,-415.05"/>
<polygon fill="black" stroke="black" points="412.036,-417.374 416.329,-407.688 406.933,-412.582 412.036,-417.374"/>
</g>
<!-- bayesian_parameter_estimation -->
<g id="node3" class="node"><title>bayesian_parameter_estimation</title>
<ellipse fill="none" stroke="black" cx="98" cy="-294" rx="89.4664" ry="29.3315"/>
<text text-anchor="middle" x="98" y="-296.8" font-family="Times,serif" font-size="14.00">Bayesian parameter</text>
<text text-anchor="middle" x="98" y="-280" font-family="Times,serif" font-size="14.00">estimation </text>
</g>
<!-- bayesian_model_comparison -->
<g id="node5" class="node"><title>bayesian_model_comparison</title>
<ellipse fill="none" stroke="black" cx="188" cy="-198" rx="74.2305" ry="29.3315"/>
<text text-anchor="middle" x="188" y="-200.8" font-family="Times,serif" font-size="14.00">Bayesian model</text>
<text text-anchor="middle" x="188" y="-184" font-family="Times,serif" font-size="14.00">comparison </text>
</g>
<!-- bayesian_parameter_estimation&#45;&gt;bayesian_model_comparison -->
<g id="edge20" class="edge"><title>bayesian_parameter_estimation&#45;&gt;bayesian_model_comparison</title>
<path fill="none" stroke="black" d="M124.032,-265.811C133.818,-255.59 145.069,-243.84 155.379,-233.071"/>
<polygon fill="black" stroke="black" points="157.95,-235.447 162.338,-225.803 152.894,-230.606 157.95,-235.447"/>
</g>
<!-- variational_bayes -->
<g id="node4" class="node"><title>variational_bayes</title>
<ellipse fill="none" stroke="black" cx="280" cy="-114" rx="79.1271" ry="18"/>
<text text-anchor="middle" x="280" y="-108.4" font-family="Times,serif" font-size="14.00">Variational Bayes</text>
</g>
<!-- variational_bayes&#45;&gt;variational_mixture_of_gaussians -->
<g id="edge12" class="edge"><title>variational_bayes&#45;&gt;variational_mixture_of_gaussians</title>
<path fill="none" stroke="black" d="M244.336,-97.7686C217.997,-86.5196 181.468,-70.9184 150.342,-57.6254"/>
<polygon fill="black" stroke="black" points="151.445,-54.2904 140.874,-53.5815 148.695,-60.7279 151.445,-54.2904"/>
</g>
<!-- variational_logistic_regression -->
<g id="node6" class="node"><title>variational_logistic_regression</title>
<ellipse fill="none" stroke="black" cx="280" cy="-30" rx="86.0512" ry="29.3315"/>
<text text-anchor="middle" x="280" y="-32.8" font-family="Times,serif" font-size="14.00">Variational logistic</text>
<text text-anchor="middle" x="280" y="-16" font-family="Times,serif" font-size="14.00">regression </text>
</g>
<!-- variational_bayes&#45;&gt;variational_logistic_regression -->
<g id="edge4" class="edge"><title>variational_bayes&#45;&gt;variational_logistic_regression</title>
<path fill="none" stroke="black" d="M280,-95.6099C280,-88.027 280,-78.8095 280,-69.74"/>
<polygon fill="black" stroke="black" points="283.5,-69.658 280,-59.658 276.5,-69.6581 283.5,-69.658"/>
</g>
<!-- variational_linear_regression -->
<g id="node12" class="node"><title>variational_linear_regression</title>
<ellipse fill="none" stroke="black" cx="464" cy="-30" rx="79.1338" ry="29.3315"/>
<text text-anchor="middle" x="464" y="-32.8" font-family="Times,serif" font-size="14.00">Variational linear</text>
<text text-anchor="middle" x="464" y="-16" font-family="Times,serif" font-size="14.00">regression </text>
</g>
<!-- variational_bayes&#45;&gt;variational_linear_regression -->
<g id="edge6" class="edge"><title>variational_bayes&#45;&gt;variational_linear_regression</title>
<path fill="none" stroke="black" d="M314.609,-97.5764C339.972,-86.2735 375.023,-70.6526 404.8,-57.3825"/>
<polygon fill="black" stroke="black" points="406.554,-60.4326 414.264,-53.1651 403.705,-54.0388 406.554,-60.4326"/>
</g>
<!-- bayesian_model_comparison&#45;&gt;variational_bayes -->
<g id="edge10" class="edge"><title>bayesian_model_comparison&#45;&gt;variational_bayes</title>
<path fill="none" stroke="black" d="M217.362,-170.829C229.069,-160.395 242.438,-148.479 253.81,-138.343"/>
<polygon fill="black" stroke="black" points="256.183,-140.917 261.319,-131.65 251.525,-135.691 256.183,-140.917"/>
</g>
<!-- model_selection -->
<g id="node10" class="node"><title>model_selection</title>
<ellipse fill="none" stroke="black" cx="279" cy="-294" rx="72.4794" ry="18"/>
<text text-anchor="middle" x="279" y="-288.4" font-family="Times,serif" font-size="14.00">Model selection</text>
</g>
<!-- basis_function_expansions&#45;&gt;model_selection -->
<g id="edge16" class="edge"><title>basis_function_expansions&#45;&gt;model_selection</title>
<path fill="none" stroke="black" d="M278.303,-360.542C278.431,-348.461 278.58,-334.434 278.708,-322.464"/>
<polygon fill="black" stroke="black" points="282.211,-322.201 278.817,-312.164 275.211,-322.126 282.211,-322.201"/>
</g>
<!-- generalization&#45;&gt;model_selection -->
<g id="edge18" class="edge"><title>generalization&#45;&gt;model_selection</title>
<path fill="none" stroke="black" d="M406.391,-373.267C380.983,-357.656 341.868,-333.625 313.684,-316.309"/>
<polygon fill="black" stroke="black" points="315.301,-313.195 304.948,-310.942 311.637,-319.159 315.301,-313.195"/>
</g>
<!-- maximum_likelihood -->
<g id="node9" class="node"><title>maximum_likelihood</title>
<ellipse fill="none" stroke="black" cx="98" cy="-390" rx="92.2715" ry="18"/>
<text text-anchor="middle" x="98" y="-384.4" font-family="Times,serif" font-size="14.00">Maximum likelihood</text>
</g>
<!-- maximum_likelihood&#45;&gt;bayesian_parameter_estimation -->
<g id="edge8" class="edge"><title>maximum_likelihood&#45;&gt;bayesian_parameter_estimation</title>
<path fill="none" stroke="black" d="M98,-371.759C98,-361.136 98,-347.068 98,-333.88"/>
<polygon fill="black" stroke="black" points="101.5,-333.574 98,-323.574 94.5001,-333.574 101.5,-333.574"/>
</g>
<!-- model_selection&#45;&gt;bayesian_model_comparison -->
<g id="edge24" class="edge"><title>model_selection&#45;&gt;bayesian_model_comparison</title>
<path fill="none" stroke="black" d="M262.731,-276.195C251.151,-264.233 235.19,-247.746 220.991,-233.079"/>
<polygon fill="black" stroke="black" points="223.23,-230.359 213.759,-225.609 218.2,-235.228 223.23,-230.359"/>
</g>
<!-- variational_inference -->
<g id="node11" class="node"><title>variational_inference</title>
<ellipse fill="none" stroke="black" cx="373" cy="-198" rx="91.601" ry="18"/>
<text text-anchor="middle" x="373" y="-192.4" font-family="Times,serif" font-size="14.00">Variational inference</text>
</g>
<!-- variational_inference&#45;&gt;variational_bayes -->
<g id="edge22" class="edge"><title>variational_inference&#45;&gt;variational_bayes</title>
<path fill="none" stroke="black" d="M353.73,-180.01C340.048,-167.945 321.509,-151.599 306.444,-138.316"/>
<polygon fill="black" stroke="black" points="308.742,-135.676 298.927,-131.688 304.113,-140.927 308.742,-135.676"/>
</g>
</g>
</svg>
